<?xml version="1.0" encoding="UTF-8" standalone="no"?><!DOCTYPE svg PUBLIC "-//W3C//DTD SVG 1.1//EN" "http://www.w3.org/Graphics/SVG/1.1/DTD/svg11.dtd"><svg width="100%" height="100%" viewBox="0 0 271 306" version="1.1" xmlns="http://www.w3.org/2000/svg" xmlns:xlink="http://www.w3.org/1999/xlink" xml:space="preserve" xmlns:serif="http://www.serif.com/" style="fill-rule:evenodd;clip-rule:evenodd;stroke-linecap:round;stroke-linejoin:round;stroke-miterlimit:1.5;"><path d="M159.204,32.729c36.509,7.52 66.368,32.312 79.815,65.011l-0.553,0c1.3,4.262 1.998,8.772 1.998,13.435l0,55.646c0,1.778 -0.102,3.533 -0.299,5.261c14.699,9.446 23.335,20.965 23.335,33.393c0,32.025 -57.355,58.024 -128,58.024c-70.645,0 -128,-26 -128,-58.024c0,-12.427 8.637,-23.947 23.335,-33.393c-0.198,-1.728 -0.299,-3.484 -0.299,-5.261l0,-55.646c0,-10.74 3.699,-20.657 9.939,-28.643c15.389,-24.867 41.04,-43.215 71.337,-49.655c-0.094,-0.826 -0.142,-1.664 -0.142,-2.514c0,-12.619 10.678,-22.863 23.831,-22.863c13.153,0 23.831,10.244 23.831,22.863c0,0.799 -0.043,1.589 -0.127,2.366l0,0.001l-0.001,-0.001Z" style="fill:#ebebeb;fill-opacity:0;stroke:#000;stroke-width:15px;"/><path d="M169.514,263.499c0,18.773 -15.241,34.014 -34.014,34.014c-18.773,0 -34.014,-15.241 -34.014,-34.014" style="fill:#ebebeb;fill-opacity:0;stroke:#000;stroke-width:15px;"/></svg>