<?xml version="1.0" encoding="UTF-8" standalone="no"?><!DOCTYPE svg PUBLIC "-//W3C//DTD SVG 1.1//EN" "http://www.w3.org/Graphics/SVG/1.1/DTD/svg11.dtd"><svg width="100%" height="100%" viewBox="0 0 746 746" version="1.1" xmlns="http://www.w3.org/2000/svg" xmlns:xlink="http://www.w3.org/1999/xlink" xml:space="preserve" xmlns:serif="http://www.serif.com/" style="fill-rule:evenodd;clip-rule:evenodd;stroke-linecap:round;stroke-linejoin:round;stroke-miterlimit:1.5;"><path d="M175.605,135.968c79.838,116.37 412.663,137.507 560.064,0" style="fill:none;stroke:#000;stroke-width:20px;"/><path d="M10,325.808c59.875,87.273 309.48,103.125 420.025,0" style="fill:none;stroke:#000;stroke-width:20px;"/><path d="M735.669,127.949c-108,-153.598 -443.696,-163.601 -560.064,8.02" style="fill:none;stroke:#000;stroke-width:20px;"/><path d="M430.025,319.793c-80.995,-115.193 -332.754,-122.694 -420.025,6.014" style="fill:none;stroke:#000;stroke-width:20px;"/><path d="M735.669,135.968l0,453.109c-76.511,70.271 -171.647,96.805 -280.032,92.226" style="fill:none;stroke:#000;stroke-width:20px;"/><path d="M430.025,325.808l0,339.813c-57.38,52.701 -128.728,72.6 -210.012,69.165" style="fill:none;stroke:#000;stroke-width:20px;"/><path d="M10,325.808l0,335.446c62.847,56.382 133.505,78.119 210.012,73.908" style="fill:none;stroke:#000;stroke-width:20px;"/><path d="M175.605,135.968l0,74.85" style="fill:none;stroke:#000;stroke-width:20px;"/></svg>