<?xml version="1.0" encoding="UTF-8" standalone="no"?><!DOCTYPE svg PUBLIC "-//W3C//DTD SVG 1.1//EN" "http://www.w3.org/Graphics/SVG/1.1/DTD/svg11.dtd"><svg width="100%" height="100%" viewBox="0 0 761 726" version="1.1" xmlns="http://www.w3.org/2000/svg" xmlns:xlink="http://www.w3.org/1999/xlink" xml:space="preserve" xmlns:serif="http://www.serif.com/" style="fill-rule:evenodd;clip-rule:evenodd;stroke-linecap:round;stroke-linejoin:round;stroke-miterlimit:1.5;"><path d="M361.463,75.58c2.656,-8.176 10.275,-13.711 18.871,-13.711c8.596,-0 16.215,5.535 18.871,13.711c18.557,57.112 45.96,141.449 59.145,182.03c4.554,14.015 17.614,23.504 32.351,23.504c42.67,0 131.347,0 191.398,0c8.596,0 16.215,5.535 18.871,13.711c2.656,8.176 -0.254,17.132 -7.208,22.185c-48.582,35.297 -120.324,87.42 -154.844,112.501c-11.922,8.662 -16.911,24.016 -12.357,38.031c13.186,40.581 40.588,124.918 59.145,182.03c2.656,8.176 -0.254,17.132 -7.208,22.185c-6.955,5.053 -16.372,5.053 -23.326,0c-48.582,-35.297 -120.324,-87.42 -154.844,-112.501c-11.922,-8.662 -28.066,-8.662 -39.988,0c-34.521,25.081 -106.262,77.204 -154.844,112.501c-6.955,5.053 -16.372,5.053 -23.326,-0c-6.955,-5.053 -9.865,-14.009 -7.208,-22.185c18.557,-57.112 45.96,-141.449 59.145,-182.03c4.554,-14.015 -0.435,-29.369 -12.357,-38.031c-34.521,-25.081 -106.262,-77.204 -154.844,-112.501c-6.955,-5.053 -9.865,-14.009 -7.208,-22.185c2.656,-8.176 10.275,-13.711 18.871,-13.711c60.051,-0 148.728,-0 191.398,-0c14.737,0 27.797,-9.489 32.351,-23.504c13.186,-40.581 40.588,-124.918 59.145,-182.03Z" style="fill:#ebebeb;fill-opacity:0;stroke:#000;stroke-width:35px;"/></svg>