<?xml version="1.0" encoding="UTF-8" standalone="no"?><!DOCTYPE svg PUBLIC "-//W3C//DTD SVG 1.1//EN" "http://www.w3.org/Graphics/SVG/1.1/DTD/svg11.dtd"><svg width="100%" height="100%" viewBox="0 0 442 260" version="1.1" xmlns="http://www.w3.org/2000/svg" xmlns:xlink="http://www.w3.org/1999/xlink" xml:space="preserve" xmlns:serif="http://www.serif.com/" style="fill-rule:evenodd;clip-rule:evenodd;stroke-linecap:round;stroke-linejoin:round;stroke-miterlimit:1.5;"><path d="M45.684,100.363l10.34,37.616l33.461,0l-27.07,23.248l10.34,37.616l-27.07,-23.248l-27.07,23.248l10.34,-37.616l-27.07,-23.248l33.461,0l10.34,-37.616l-0.002,0Zm87.601,-49.239l10.34,37.616l33.461,0l-27.07,23.248l10.34,37.616l-27.07,-23.248l-27.07,23.248l10.34,-37.616l-27.07,-23.248l33.461,0l10.34,-37.616l-0.002,0Zm175.202,-0l10.34,37.616l33.461,0l-27.07,23.248l10.34,37.616l-27.07,-23.248l-27.07,23.248l10.34,-37.616l-27.07,-23.248l33.461,0l10.34,-37.616l-0.002,0Zm-87.601,-49.239l10.34,37.616l33.461,0l-27.07,23.248l10.34,37.616l-27.07,-23.248l-27.07,23.248l10.34,-37.616l-27.07,-23.248l33.461,0l10.34,-37.616l-0.002,0Zm175.202,98.479l10.34,37.616l33.461,0l-27.07,23.248l10.34,37.616l-27.07,-23.248l-27.07,23.248l10.34,-37.616l-27.07,-23.248l33.461,0l10.34,-37.616l-0.002,0Zm-109.501,68.188l0,37.898c0,10.459 -7.183,18.95 -16.032,18.95l-52.954,0l-36.135,32.485l16.425,-32.485l-26.675,0c-8.848,0 -16.032,-8.491 -16.032,-18.95l0,-37.898c0,-10.459 7.183,-18.95 16.032,-18.95l99.339,0c8.848,0 16.032,8.491 16.032,18.95l0.001,0l-0.001,0Z" style="fill:#ebebeb;fill-opacity:0;stroke:#000;stroke-width:4px;"/></svg>