<?xml version="1.0" encoding="UTF-8" standalone="no"?><!DOCTYPE svg PUBLIC "-//W3C//DTD SVG 1.1//EN" "http://www.w3.org/Graphics/SVG/1.1/DTD/svg11.dtd"><svg width="100%" height="100%" viewBox="0 0 264 251" version="1.1" xmlns="http://www.w3.org/2000/svg" xmlns:xlink="http://www.w3.org/1999/xlink" xml:space="preserve" xmlns:serif="http://www.serif.com/" style="fill-rule:evenodd;clip-rule:evenodd;stroke-linecap:round;stroke-linejoin:round;stroke-miterlimit:1.5;"><path d="M138.904,169.333l35.844,-146.944c2.036,-7.304 5.983,-13.501 11.496,-18.792c0,-0 -42.951,0.025 -69.318,0.04c-12.109,0.007 -22.963,7.475 -27.296,18.782c-21.862,57.043 -86.031,224.471 -86.031,224.471l89.047,0c14.264,0 26.801,-9.456 30.72,-23.172c6.529,-22.854 15.539,-54.387 15.539,-54.387" style="stroke:#000;stroke-width:7.2px;"/><path d="M259.598,125.271c-6.196,5.34 -8.779,11.713 -8.97,18.769l0.797,102.852l-90.362,0l0,-88.374c0,-8.818 3.503,-17.274 9.738,-23.509c6.235,-6.235 14.691,-9.738 23.509,-9.738l65.287,0" style="stroke:#000;stroke-width:7.2px;"/><path d="M138.904,169.333l21.282,77.559" style="fill:none;stroke:#000;stroke-width:7.2px;"/><path d="M186.244,3.598l32.839,121.673" style="fill:none;stroke:#000;stroke-width:7.2px;"/></svg>