<?xml version="1.0" encoding="UTF-8" standalone="no"?><!DOCTYPE svg PUBLIC "-//W3C//DTD SVG 1.1//EN" "http://www.w3.org/Graphics/SVG/1.1/DTD/svg11.dtd"><svg width="100%" height="100%" viewBox="0 0 587 746" version="1.1" xmlns="http://www.w3.org/2000/svg" xmlns:xlink="http://www.w3.org/1999/xlink" xml:space="preserve" xmlns:serif="http://www.serif.com/" style="fill-rule:evenodd;clip-rule:evenodd;stroke-linecap:round;stroke-linejoin:round;stroke-miterlimit:1.5;"><path d="M278.818,279.9c0.806,-1.406 1.663,-2.802 2.569,-4.188c21.712,-33.19 64.064,-47.538 94.517,-32.021c30.453,15.517 37.549,55.061 15.837,88.25c-0.906,1.386 -1.849,2.738 -2.825,4.058c-0.542,1.001 -1.134,1.994 -1.777,2.976l-227.647,347.983c-0.959,1.465 -1.998,2.857 -3.106,4.172c-1.129,2.107 -2.369,4.197 -3.72,6.263c-21.712,33.19 -64.064,47.538 -94.517,32.021c-30.453,-15.517 -37.549,-55.061 -15.837,-88.25c1.351,-2.065 2.782,-4.058 4.285,-5.975c0.736,-1.505 1.582,-2.995 2.541,-4.46l227.647,-347.983c0.642,-0.982 1.321,-1.931 2.032,-2.846Z" style="fill:#ebebeb;fill-opacity:0;stroke:#000;stroke-width:20px;"/><path d="M281.488,275.557l110.354,56.229" style="fill:none;stroke:#000;stroke-width:20px;"/><path d="M72.397,157.634l0,110.137" style="fill:none;stroke:#000;stroke-width:20px;"/><path d="M493.934,10l0,110.137" style="fill:none;stroke:#000;stroke-width:20px;"/><path d="M514.532,417.855l0,110.137" style="fill:none;stroke:#000;stroke-width:20px;"/><path d="M134.795,212.703l-124.795,0" style="fill:none;stroke:#000;stroke-width:20px;"/><path d="M556.331,65.068l-124.795,0" style="fill:none;stroke:#000;stroke-width:20px;"/><path d="M576.929,472.924l-124.795,0" style="fill:none;stroke:#000;stroke-width:20px;"/><path d="M116.519,251.642l-88.243,-77.878" style="fill:none;stroke:#000;stroke-width:20px;"/><path d="M538.056,104.007l-88.243,-77.878" style="fill:none;stroke:#000;stroke-width:20px;"/><path d="M558.653,511.863l-88.243,-77.878" style="fill:none;stroke:#000;stroke-width:20px;"/><path d="M28.276,251.642l88.243,-77.878" style="fill:none;stroke:#000;stroke-width:20px;"/><path d="M449.812,104.007l88.243,-77.878" style="fill:none;stroke:#000;stroke-width:20px;"/><path d="M470.41,511.863l88.243,-77.878" style="fill:none;stroke:#000;stroke-width:20px;"/></svg>