<?xml version="1.0" encoding="UTF-8" standalone="no"?><!DOCTYPE svg PUBLIC "-//W3C//DTD SVG 1.1//EN" "http://www.w3.org/Graphics/SVG/1.1/DTD/svg11.dtd"><svg width="100%" height="100%" viewBox="0 0 746 746" version="1.1" xmlns="http://www.w3.org/2000/svg" xmlns:xlink="http://www.w3.org/1999/xlink" xml:space="preserve" xmlns:serif="http://www.serif.com/" style="fill-rule:evenodd;clip-rule:evenodd;stroke-linecap:round;stroke-linejoin:round;stroke-miterlimit:1.5;"><path d="M371.955,77.167c-14.903,-62.284 -65.014,-80.864 -149.035,-57.352c-48.707,40.98 -52.501,78.388 -7.405,111.907c-50.465,-43.616 -106.9,-49.641 -172.177,0c-42.66,50.973 -46.206,105.23 0,163.664l72.203,54.555l-66.649,50.358c-32.4,32.173 -31.78,64.346 0,96.52c-5.219,36.966 20.338,52.793 69.426,52.456c-48.339,20.749 -55.339,41.499 0,62.248c-11.884,36.691 6.792,56.449 68.963,52.107c-15.706,77.833 47.803,65.889 95.345,72.04c69.412,-30.605 98.908,-76.289 89.328,-136.736" style="fill:none;stroke:#000;stroke-width:20px;"/><path d="M373.715,77.167c14.903,-62.284 65.014,-80.864 149.035,-57.352c48.707,40.98 52.501,78.388 7.405,111.907c50.465,-43.616 106.9,-49.641 172.177,0c42.66,50.973 46.206,105.23 0,163.664l-72.203,54.555l66.649,50.358c32.4,32.173 31.78,64.346 0,96.52c5.219,36.966 -20.338,52.793 -69.426,52.456c48.339,20.749 55.339,41.499 0,62.248c11.884,36.691 -6.792,56.449 -68.963,52.107c15.706,77.833 -47.803,65.889 -95.345,72.04c-69.412,-30.605 -98.908,-76.289 -89.328,-136.736" style="fill:none;stroke:#000;stroke-width:20px;"/><ellipse cx="250.061" cy="243.433" rx="58.204" ry="55.758" style="fill:#ebebeb;fill-opacity:0;stroke:#000;stroke-width:20px;"/><path d="M283.374,648.288c-31.297,6.937 -62.585,-11.771 -69.826,-41.753c-7.242,-29.981 12.288,-59.955 43.584,-66.892c31.297,-6.937 62.585,11.771 69.826,41.753c7.242,29.981 -12.288,59.955 -43.584,66.892Z" style="fill:#ebebeb;fill-opacity:0;stroke:#000;stroke-width:20px;"/><path d="M511.721,373.268c-31.874,-3.828 -60.996,17.855 -64.991,48.389c-3.996,30.534 18.638,58.432 50.512,62.26c31.874,3.828 60.996,-17.855 64.991,-48.389c3.996,-30.534 -18.638,-58.432 -50.512,-62.26Z" style="fill:#ebebeb;fill-opacity:0;stroke:#000;stroke-width:20px;"/><path d="M250.061,299.19l-58.204,131.882l-73.828,-76.936" style="fill:none;stroke:#000;stroke-width:20px;"/><path d="M257.132,539.643l25.671,-141.057l90.032,59.012" style="fill:none;stroke:#000;stroke-width:20px;"/><path d="M497.242,483.917l40.628,137.794l83.244,-67.541" style="fill:none;stroke:#000;stroke-width:20px;"/><path d="M372.835,81.364l0,509.731" style="fill:none;stroke:#000;stroke-width:20px;"/></svg>