<?xml version="1.0" encoding="UTF-8" standalone="no"?><!DOCTYPE svg PUBLIC "-//W3C//DTD SVG 1.1//EN" "http://www.w3.org/Graphics/SVG/1.1/DTD/svg11.dtd"><svg width="100%" height="100%" viewBox="0 0 276 276" version="1.1" xmlns="http://www.w3.org/2000/svg" xmlns:xlink="http://www.w3.org/1999/xlink" xml:space="preserve" xmlns:serif="http://www.serif.com/" style="fill-rule:evenodd;clip-rule:evenodd;stroke-linecap:round;stroke-linejoin:round;stroke-miterlimit:1.5;"><path d="M42.983,206.969c-20.497,-20.92 -32.983,-48.631 -32.983,-79.008c0,-65.106 57.355,-117.962 128,-117.962c70.645,0 128,52.857 128,117.962c0,65.106 -57.355,117.962 -128,117.962c-30.091,0 -57.771,-9.589 -79.634,-25.631c-2.57,2.55 -5.1,5.384 -7.516,8.49c-9.365,12.042 -15.549,26.293 -18.009,37.218c-10.059,-12.934 -7.706,-36.961 5.251,-53.622c1.556,-2.001 3.195,-3.805 4.891,-5.408l0,-0.001Z" style="fill:#ebebeb;fill-opacity:0;stroke:#000;stroke-width:20px;"/><rect x="133.437" y="46.243" width="9.126" height="160.171" style="fill:#ebebeb;fill-opacity:0;stroke:#000;stroke-width:15px;"/><path d="M218.086,130.767l-160.172,0l0,-8.876l160.172,-0l0,8.876Z" style="fill:#ebebeb;fill-opacity:0;stroke:#000;stroke-width:15px;"/></svg>