<?xml version="1.0" encoding="UTF-8" standalone="no"?><!DOCTYPE svg PUBLIC "-//W3C//DTD SVG 1.1//EN" "http://www.w3.org/Graphics/SVG/1.1/DTD/svg11.dtd"><svg width="100%" height="100%" viewBox="0 0 269 269" version="1.1" xmlns="http://www.w3.org/2000/svg" xmlns:xlink="http://www.w3.org/1999/xlink" xml:space="preserve" xmlns:serif="http://www.serif.com/" style="fill-rule:evenodd;clip-rule:evenodd;stroke-linecap:round;stroke-linejoin:round;stroke-miterlimit:1.5;"><path d="M262.29,134.367c0,70.079 -62.021,137.386 -148.636,126.823c-6.256,-0.763 -12.692,-1.336 -18.55,-3.661c-11.626,-4.615 -21.833,-12.369 -33.459,-16.984c-4.342,1.186 -54.272,14.828 -54.272,14.828c-0.366,-0.275 29.849,-35.979 27.593,-40.576c-3.21,-6.542 -9.32,-11.277 -13.095,-17.511c-37.99,-62.734 -5.519,-167.476 86.558,-187.665c100.167,-21.962 153.861,69.772 153.861,124.745Z" style="fill:#ebebeb;fill-opacity:0;stroke:#000;stroke-width:12.58px;"/><path d="M134.29,67.409l0,133.761" style="fill:none;stroke:#000;stroke-width:11px;"/><path d="M198.981,134.29l-129.383,-0" style="fill:none;stroke:#000;stroke-width:11px;"/></svg>