<?xml version="1.0" encoding="UTF-8" standalone="no"?><!DOCTYPE svg PUBLIC "-//W3C//DTD SVG 1.1//EN" "http://www.w3.org/Graphics/SVG/1.1/DTD/svg11.dtd"><svg width="100%" height="100%" viewBox="0 0 746 746" version="1.1" xmlns="http://www.w3.org/2000/svg" xmlns:xlink="http://www.w3.org/1999/xlink" xml:space="preserve" xmlns:serif="http://www.serif.com/" style="fill-rule:evenodd;clip-rule:evenodd;stroke-linecap:round;stroke-linejoin:round;stroke-miterlimit:1.5;"><path d="M372.835,10c200.254,0 362.835,162.581 362.835,362.835c0,200.254 -162.581,362.835 -362.835,362.835c-200.254,0 -362.835,-162.581 -362.835,-362.835c0,-200.254 162.581,-362.835 362.835,-362.835Zm177.418,381.376c0,-47.154 -38.283,-85.437 -85.437,-85.437l-183.962,0c-47.154,0 -85.437,38.283 -85.437,85.437l0,170.874c0,47.154 38.283,85.437 85.437,85.437l183.962,0c47.154,0 85.437,-38.283 85.437,-85.437l0,-170.874Zm-177.418,-293.394c-52.973,0 -95.98,43.007 -95.98,95.98c0,52.973 43.007,95.98 95.98,95.98c52.973,0 95.98,-43.007 95.98,-95.98c0,-52.973 -43.007,-95.98 -95.98,-95.98Z" style="stroke:#000;stroke-width:20px;"/></svg>