<?xml version="1.0" encoding="UTF-8" standalone="no"?><!DOCTYPE svg PUBLIC "-//W3C//DTD SVG 1.1//EN" "http://www.w3.org/Graphics/SVG/1.1/DTD/svg11.dtd"><svg width="100%" height="100%" viewBox="0 0 746 587" version="1.1" xmlns="http://www.w3.org/2000/svg" xmlns:xlink="http://www.w3.org/1999/xlink" xml:space="preserve" xmlns:serif="http://www.serif.com/" style="fill-rule:evenodd;clip-rule:evenodd;stroke-linecap:round;stroke-linejoin:round;stroke-miterlimit:1.5;"><path d="M372.915,494.799l-334.302,0c-38.741,27.377 -36.728,54.754 0,82.131l334.302,0" style="fill:none;stroke:#000;stroke-width:20px;"/><path d="M10.307,10l362.608,0l0,484.799l334.302,0c38.741,27.377 36.728,54.754 0,82.131l-334.302,0" style="fill:none;stroke:#000;stroke-width:20px;"/><path d="M372.915,10l362.608,0" style="fill:none;stroke:#000;stroke-width:20px;"/><path d="M93.955,10l-83.461,205.491" style="fill:none;stroke:#000;stroke-width:20px;"/><path d="M651.715,10l83.461,205.491" style="fill:none;stroke:#000;stroke-width:20px;"/><path d="M93.955,10l83.461,205.491" style="fill:none;stroke:#000;stroke-width:20px;"/><path d="M651.715,10l-83.461,205.491" style="fill:none;stroke:#000;stroke-width:20px;"/><path d="M10.494,215.491l166.922,0" style="fill:none;stroke:#000;stroke-width:20px;"/><path d="M735.176,215.491l-166.922,0" style="fill:none;stroke:#000;stroke-width:20px;"/><path d="M10.494,215.491c-4.548,48.395 22.259,82.79 83.461,101.828" style="fill:none;stroke:#000;stroke-width:20px;"/><path d="M735.176,215.491c4.548,48.395 -22.259,82.79 -83.461,101.828" style="fill:none;stroke:#000;stroke-width:20px;"/><path d="M177.416,215.491c4.548,48.395 -22.259,82.79 -83.461,101.828" style="fill:none;stroke:#000;stroke-width:20px;"/><path d="M568.253,215.491c-4.548,48.395 22.259,82.79 83.461,101.828" style="fill:none;stroke:#000;stroke-width:20px;"/></svg>