<?xml version="1.0" encoding="UTF-8" standalone="no"?><!DOCTYPE svg PUBLIC "-//W3C//DTD SVG 1.1//EN" "http://www.w3.org/Graphics/SVG/1.1/DTD/svg11.dtd"><svg width="100%" height="100%" viewBox="0 0 271 245" version="1.1" xmlns="http://www.w3.org/2000/svg" xmlns:xlink="http://www.w3.org/1999/xlink" xml:space="preserve" xmlns:serif="http://www.serif.com/" style="fill-rule:evenodd;clip-rule:evenodd;stroke-linecap:round;stroke-linejoin:round;stroke-miterlimit:1.5;"><path d="M113.115,169.109c-11.138,8.312 -25.132,13.264 -40.321,13.264c-36.294,0 -65.759,-28.271 -65.759,-63.094c0,-34.822 29.466,-63.094 65.759,-63.094c36.294,0 65.759,28.271 65.759,63.094c0,19.587 -9.322,37.101 -23.939,48.678l71.131,68.248l-1.35,1.295l-71.28,-68.391l0,-0.001l0,0.001Z" style="fill:#ebebeb;fill-opacity:0;stroke:#000;stroke-width:14.07px;"/><path d="M261.049,94.462c-3.823,-35.61 -44.329,-90.269 -112.032,-86.805c-42.046,0.643 -72.574,16.912 -92.572,44.017" style="fill:none;stroke:#000;stroke-width:15px;"/><path d="M261.014,92.851c9.548,65.858 -19.169,117.157 -74.48,144.35" style="fill:none;stroke:#000;stroke-width:15px;"/><path d="M106.881,15.813c-9.324,12.761 -9.901,24.818 -9.927,38.187" style="fill:none;stroke:#000;stroke-width:15px;"/><path d="M96.954,54.001c-0.001,0.298 -0.001,0.597 -0.001,0.896" style="fill:none;stroke:#000;stroke-width:15px;"/><path d="M200.207,18.231c4.368,12.027 7.826,23.85 10.445,35.501" style="fill:none;stroke:#000;stroke-width:15px;"/><path d="M210.651,53.732c11.618,51.695 6.712,99.987 -8.518,147.58" style="fill:none;stroke:#000;stroke-width:15px;"/><path d="M202.134,201.312c-3.344,10.449 -7.185,20.864 -11.458,31.274" style="fill:none;stroke:#000;stroke-width:15px;"/><path d="M96.555,54.091c0.133,-0.03 0.265,-0.061 0.398,-0.09" style="fill:none;stroke:#000;stroke-width:15px;"/><path d="M120.632,73.298c26.672,-6.964 68.675,-6.834 102.453,4.126" style="fill:none;stroke:#000;stroke-width:14.72px;"/><path d="M129.006,151.741c21.871,7.733 56.639,8.684 85.903,-0.545" style="fill:none;stroke:#000;stroke-width:13.62px;"/><path d="M223.085,77.425c11.122,2.342 21.927,5.343 32.174,8.821" style="fill:none;stroke:#000;stroke-width:14.72px;"/><path d="M220.945,150.458c12.152,-2.342 24.226,-5.343 33.601,-8.821" style="fill:none;stroke:#000;stroke-width:14.72px;"/></svg>