<?xml version="1.0" encoding="UTF-8" standalone="no"?><!DOCTYPE svg PUBLIC "-//W3C//DTD SVG 1.1//EN" "http://www.w3.org/Graphics/SVG/1.1/DTD/svg11.dtd"><svg width="100%" height="100%" viewBox="0 0 267 267" version="1.1" xmlns="http://www.w3.org/2000/svg" xmlns:xlink="http://www.w3.org/1999/xlink" xml:space="preserve" xmlns:serif="http://www.serif.com/" style="fill-rule:evenodd;clip-rule:evenodd;stroke-linecap:round;stroke-linejoin:round;stroke-miterlimit:1.5;"><path d="M5.5,99.643c6.226,-21.918 18.346,-41.495 34.611,-57.044c5.936,10.602 17.561,17.811 30.919,17.811c19.38,0 35.115,-15.177 35.115,-33.871c0,-6.289 -1.781,-12.18 -4.882,-17.229c10.322,-2.489 21.12,-3.81 32.237,-3.81c11.116,0 21.915,1.321 32.237,3.81c-3.101,5.049 -4.882,10.94 -4.882,17.229c0,18.694 15.735,33.871 35.115,33.871c13.358,0 24.983,-7.21 30.919,-17.811c16.266,15.549 28.386,35.126 34.611,57.044c-18.899,0.532 -34.073,15.499 -34.073,33.857c0,18.358 15.173,33.324 34.073,33.857c-6.093,21.452 -17.833,40.662 -33.58,56.047c-5.541,-11.683 -17.77,-19.809 -31.95,-19.809c-19.38,0 -35.115,15.177 -35.115,33.871c0,7.386 2.456,14.223 6.623,19.792c-10.846,2.767 -22.235,4.242 -33.977,4.242c-11.743,0 -23.132,-1.475 -33.977,-4.242c4.167,-5.569 6.623,-12.406 6.623,-19.792c0,-18.694 -15.735,-33.871 -35.115,-33.871c-14.181,0 -26.409,8.125 -31.95,19.809c-15.747,-15.385 -27.487,-34.596 -33.58,-56.047c18.899,-0.532 34.073,-15.499 34.073,-33.857c0,-18.358 -15.173,-33.324 -34.073,-33.857l0.001,0l-0.003,0Zm128,-0.015c-19.38,0 -35.115,15.177 -35.115,33.871c0,18.694 15.735,33.871 35.115,33.871c19.38,0 35.115,-15.177 35.115,-33.871c0,-18.694 -15.735,-33.871 -35.115,-33.871Z" style="fill:#ebebeb;fill-opacity:0;stroke:#000;stroke-width:11px;"/></svg>