<?xml version="1.0" encoding="UTF-8" standalone="no"?><!DOCTYPE svg PUBLIC "-//W3C//DTD SVG 1.1//EN" "http://www.w3.org/Graphics/SVG/1.1/DTD/svg11.dtd"><svg width="100%" height="100%" viewBox="0 0 262 270" version="1.1" xmlns="http://www.w3.org/2000/svg" xmlns:xlink="http://www.w3.org/1999/xlink" xml:space="preserve" xmlns:serif="http://www.serif.com/" style="fill-rule:evenodd;clip-rule:evenodd;stroke-linecap:round;stroke-linejoin:round;stroke-miterlimit:1.5;"><path d="M114.855,57.473l41.702,15.676l15.713,41.604l15.713,-41.604l41.702,-15.676l-41.702,-15.676l-15.713,-41.604l-15.713,41.604l-41.702,15.676Z" style="stroke:#000;stroke-width:0.38px;"/><path d="M181.521,114.753l29.08,11.424l10.958,30.324l10.958,-30.324l29.08,-11.424l-29.08,-11.424l-10.958,-30.324l-10.958,30.324l-29.08,11.424Z" style="stroke:#000;stroke-width:0.42px;"/><path d="M237.294,152.245c0,61.778 -51.91,111.934 -115.849,111.934c-26.257,0 -46.208,-4.784 -65.646,-19.033c-2.595,-1.902 -58.249,20.371 -48.158,10.752c8.579,-8.178 26.791,-30.305 24.026,-33.28c-18.421,-19.823 -26.069,-41.663 -26.069,-70.374c0,-61.778 51.91,-111.934 115.849,-111.934" style="fill:#ebebeb;fill-opacity:0;stroke:#000;stroke-width:11.19px;"/></svg>