<?xml version="1.0" encoding="UTF-8" standalone="no"?><!DOCTYPE svg PUBLIC "-//W3C//DTD SVG 1.1//EN" "http://www.w3.org/Graphics/SVG/1.1/DTD/svg11.dtd"><svg width="100%" height="100%" viewBox="0 0 254 266" version="1.1" xmlns="http://www.w3.org/2000/svg" xmlns:xlink="http://www.w3.org/1999/xlink" xml:space="preserve" xmlns:serif="http://www.serif.com/" style="fill-rule:evenodd;clip-rule:evenodd;stroke-linecap:round;stroke-linejoin:round;stroke-miterlimit:1.5;"><path d="M130.239,49.624l35.922,13.536l13.536,35.922l13.536,-35.922l35.922,-13.536l-35.922,-13.536l-13.536,-35.922l-13.536,35.922l-35.922,13.536Z" style="stroke:#000;stroke-width:0.33px;"/><path d="M191.346,90.843l22.394,9.105l8.439,24.169l8.439,-24.169l22.394,-9.105l-22.394,-9.105l-8.439,-24.169l-8.439,24.169l-22.394,9.105Z" style="stroke:#000;stroke-width:0.33px;"/><path d="M233.441,144.232c0,61.778 -50.156,111.934 -111.934,111.934c-25.37,0 -44.647,-4.784 -63.428,-19.033c-2.507,-1.902 -56.281,20.371 -46.531,10.752c8.289,-8.178 25.885,-30.305 23.214,-33.28c-17.799,-19.823 -25.188,-41.663 -25.188,-70.374c0,-61.778 50.156,-111.934 111.934,-111.934" style="fill:#ebebeb;fill-opacity:0;stroke:#000;stroke-width:19.15px;"/></svg>