<?xml version="1.0" encoding="UTF-8" standalone="no"?><!DOCTYPE svg PUBLIC "-//W3C//DTD SVG 1.1//EN" "http://www.w3.org/Graphics/SVG/1.1/DTD/svg11.dtd"><svg width="100%" height="100%" viewBox="0 0 746 746" version="1.1" xmlns="http://www.w3.org/2000/svg" xmlns:xlink="http://www.w3.org/1999/xlink" xml:space="preserve" xmlns:serif="http://www.serif.com/" style="fill-rule:evenodd;clip-rule:evenodd;stroke-linecap:round;stroke-linejoin:round;stroke-miterlimit:1.5;"><path d="M119.783,328.285l-15.662,0c-51.947,0 -94.121,-35.655 -94.121,-79.571l0,-159.142c0,-43.917 42.174,-79.571 94.121,-79.571l34.399,0l0,207.405l119.444,0l0,-207.405l34.399,0c51.947,0 94.121,35.655 94.121,79.571l0,159.142c0,43.917 -42.174,79.571 -94.121,79.571l-15.662,0l0,374.22c0,18.304 -17.578,33.165 -39.229,33.165l-78.458,0c-21.651,0 -39.229,-14.861 -39.229,-33.165l0,-374.22Z" style="fill:#ebebeb;fill-opacity:0;stroke:#000;stroke-width:20px;"/><path d="M481.265,104.256l-44.206,-94.256l298.61,0l-44.206,94.256" style="fill:none;stroke:#000;stroke-width:20px;"/><path d="M689.121,104.256c-93.004,70.446 -70.061,156.822 -58.844,289.98" style="fill:none;stroke:#000;stroke-width:20px;"/><path d="M481.265,104.256c96.036,57.237 80.518,150.963 64.699,289.98" style="fill:none;stroke:#000;stroke-width:20px;"/><path d="M689.121,446.201l0,237.505c0,28.68 -23.284,51.964 -51.964,51.964l-103.928,0c-28.68,0 -51.964,-23.284 -51.964,-51.964l0,-237.505c0,-28.68 23.284,-51.964 51.964,-51.964l103.928,0c28.68,0 51.964,23.284 51.964,51.964Z" style="fill:none;stroke:#000;stroke-width:20px;"/><path d="M481.265,438.409l207.856,0" style="fill:none;stroke:#000;stroke-width:20px;"/></svg>