<?xml version="1.0" encoding="UTF-8" standalone="no"?><!DOCTYPE svg PUBLIC "-//W3C//DTD SVG 1.1//EN" "http://www.w3.org/Graphics/SVG/1.1/DTD/svg11.dtd"><svg width="100%" height="100%" viewBox="0 0 726 620" version="1.1" xmlns="http://www.w3.org/2000/svg" xmlns:xlink="http://www.w3.org/1999/xlink" xml:space="preserve" xmlns:serif="http://www.serif.com/" style="fill-rule:evenodd;clip-rule:evenodd;stroke-linejoin:round;stroke-miterlimit:2;"><path d="M328.504,619.918l-115.96,0l-212.544,-309.959l212.544,-309.959l149.571,0c-30.15,84.057 -71.672,237.284 -135.029,551.43c-3.939,19.529 8.719,38.581 28.247,42.519c19.529,3.939 38.581,-8.719 42.519,-28.247l114.091,-565.703l101.183,0l212.544,309.959l-212.544,309.959l-134.938,0c30.924,-83.468 73.9,-236.274 140.391,-551.705c4.109,-19.493 -8.381,-38.656 -27.874,-42.765c-19.493,-4.109 -38.656,8.381 -42.765,27.874l-119.437,566.595Z" style="fill:#8e00ff;"/></svg>